<?xml version="1.0" encoding="utf-8"?>
<!-- Generator: Adobe Illustrator 27.0.0, SVG Export Plug-In . SVG Version: 6.00 Build 0)  -->
<svg version="1.1" id="inter" xmlns="http://www.w3.org/2000/svg" xmlns:xlink="http://www.w3.org/1999/xlink" x="0px" y="0px"
	 viewBox="0 0 512 512" style="enable-background:new 0 0 512 512;" xml:space="preserve">
<style type="text/css">
	.st0{fill-rule:evenodd;clip-rule:evenodd;fill:#F57F26;}
</style>
<g>
	<path class="st0" d="M247.31,240.28v55.44c0,9.64,3.72,13.98,15.47,13.98c4.92,0,9.76-1.37,12.66-2.4v22.34
		c-4.93,1.65-12.45,2.48-18.62,2.48c-24.7,0-36.41-12.37-36.41-33.76V186.49h26.89v35.58l28.13,0v18.21L247.31,240.28L247.31,240.28
		z"/>
	<path class="st0" d="M284.55,273.98c0-32.84,20.71-55.21,53.85-55.21c35.41,0,52.96,25.83,51.1,63.3h-77.33
		c1.4,19.22,10.42,28.97,26.39,28.97c13.5,0,20.67-6.51,23.76-15.72h26.27c-5.11,22.58-22.99,36.82-50.2,36.82
		c-33.6,0-53.85-22.16-53.85-55.42L284.55,273.98L284.55,273.98z M338.19,240.29c-14.74,0-23.55,7.89-26.02,23.57l50.32-0.41
		C361.04,248.81,353.14,240.29,338.19,240.29L338.19,240.29z"/>
	<path class="st0" d="M42.93,222.07v18.18h18.2v88.56h26.9V222.07H42.93z"/>
	<path class="st0" d="M60.32,192.31c-0.01,0.23-0.01,0.5-0.01,1.03v2.01c0,0.54,0,0.81,0.01,1.03c0.25,6.76,6,12.19,13.16,12.43
		c0.24,0.01,0.53,0.01,1.1,0.01c0.57,0,0.86,0,1.1-0.01c7.17-0.24,12.92-5.67,13.17-12.43c0.01-0.23,0.01-0.5,0.01-1.03v-2.01
		c0-0.54,0-0.81-0.01-1.03c-0.25-6.76-6-12.19-13.16-12.43c-0.24-0.01-0.53-0.01-1.1-0.01c-0.57,0-0.86,0-1.1,0.01
		C66.32,180.12,60.57,185.55,60.32,192.31z"/>
	<path class="st0" d="M166.43,218.77c-17.3,0-27.97,10.22-33.31,20.27l-1.24-16.96h-25.65v106.74h26.89v-59.99
		c0-17.71,9.39-28.54,23.58-28.54c14.19,0,19.44,9.39,19.44,25.65v62.89h26.89v-68.68C203.08,236.31,192.74,218.77,166.43,218.77z"
		/>
	<path class="st0" d="M431.42,239.04c6.83-13.36,20.77-20.27,31.24-20.27c1.86,0,4.8,0.25,6.41,0.62v20.9
		c-1.86-0.1-4.71-0.42-6.93-0.42c-19.11,0-29.83,11.5-29.83,31.03v57.92l-27.78,0V222.07h26.06L431.42,239.04L431.42,239.04z"/>
</g>
</svg>
